<?xml version="1.0" standalone="no"?>
<!DOCTYPE svg PUBLIC "-//W3C//DTD SVG 20010904//EN"
 "http://www.w3.org/TR/2001/REC-SVG-20010904/DTD/svg10.dtd">
<svg version="1.0" xmlns="http://www.w3.org/2000/svg"
 width="512.000000pt" height="512.000000pt" viewBox="0 0 512.000000 512.000000"
 preserveAspectRatio="xMidYMid meet">
<metadata>
Created by potrace 1.16, written by Peter Selinger 2001-2019
</metadata>
<g transform="translate(0.000000,512.000000) scale(0.100000,-0.100000)"
fill="#000000" stroke="none">
<path d="M2079 4858 c-233 -143 -761 -463 -1174 -711 -412 -247 -778 -469
-813 -494 -34 -24 -69 -57 -77 -73 -13 -25 -15 -146 -15 -901 0 -998 -11 -890
102 -990 156 -138 360 -283 1078 -767 663 -448 888 -603 1119 -775 95 -70 184
-133 198 -138 31 -12 95 -12 127 1 14 5 177 116 363 248 436 307 1015 708
1513 1047 447 304 524 359 580 415 l40 40 -2 904 c-3 902 -3 905 -24 933 -12
16 -160 112 -360 231 -544 326 -834 504 -1414 865 -641 400 -689 427 -764 427
-52 0 -62 -5 -477 -262z m321 -835 l-1 -638 -92 -56 c-50 -31 -262 -161 -470
-289 -300 -184 -383 -230 -398 -224 -26 12 -968 668 -968 674 0 6 1911 1169
1922 1170 4 0 7 -287 7 -637z m1291 55 c527 -321 958 -585 959 -588 0 -8 -964
-675 -976 -675 -6 0 -223 128 -482 285 l-471 285 -1 638 c0 350 3 637 6 637 4
0 438 -262 965 -582z m-2949 -1187 l397 -276 -382 -228 c-210 -125 -394 -235
-409 -243 l-28 -15 0 526 c0 418 3 525 13 519 6 -4 191 -131 409 -283z m4058
-240 l0 -529 -405 246 c-316 193 -402 250 -392 259 13 13 788 553 793 553 2 0
4 -238 4 -529z m-1826 194 c217 -132 395 -242 395 -245 1 -11 -801 -561 -813
-558 -17 4 -806 551 -805 558 0 11 795 489 810 487 9 -1 195 -110 413 -242z
m-1046 -778 l472 -329 0 -630 c0 -346 -4 -628 -8 -626 -17 6 -1921 1333 -1921
1338 -1 13 963 589 974 582 6 -4 224 -155 483 -335z m2285 23 c240 -146 437
-267 436 -270 0 -5 -1904 -1332 -1921 -1338 -4 -2 -8 280 -8 626 l0 630 482
335 483 336 46 -27 c26 -15 243 -146 482 -292z"/>
</g>
</svg>
