<?xml version="1.0" standalone="no"?>
<!DOCTYPE svg PUBLIC "-//W3C//DTD SVG 20010904//EN"
 "http://www.w3.org/TR/2001/REC-SVG-20010904/DTD/svg10.dtd">
<svg version="1.0" xmlns="http://www.w3.org/2000/svg"
 width="512.000000pt" height="512.000000pt" viewBox="0 0 512.000000 512.000000"
 preserveAspectRatio="xMidYMid meet">
<metadata>
Created by potrace 1.16, written by Peter Selinger 2001-2019
</metadata>
<g transform="translate(0.000000,512.000000) scale(0.100000,-0.100000)"
fill="#000000" stroke="none">
<path d="M3894 5102 c-65 -23 -146 -75 -181 -116 -16 -18 -102 -143 -193 -279
l-165 -246 -1400 -3 -1400 -3 -52 -21 c-124 -51 -214 -152 -247 -276 -16 -58
-17 -180 -14 -1428 l3 -1365 32 -67 c41 -88 113 -160 201 -201 l67 -32 833 -3
c652 -2 833 -5 830 -15 -2 -6 -29 -116 -59 -244 l-54 -231 -170 -4 c-162 -3
-172 -4 -221 -30 -64 -34 -128 -105 -148 -165 -9 -26 -16 -75 -16 -110 l0 -63
-179 0 c-176 0 -181 -1 -208 -24 -24 -21 -28 -32 -28 -76 0 -44 4 -55 28 -76
l28 -24 1379 0 1379 0 28 24 c24 21 28 32 28 76 0 44 -4 55 -28 76 -27 23 -32
24 -208 24 l-179 0 0 63 c0 35 -7 84 -16 110 -20 60 -84 131 -148 165 -49 26
-59 27 -221 30 l-170 4 -54 231 c-30 128 -57 238 -59 244 -3 10 178 13 830 15
l833 3 67 32 c88 41 160 113 201 201 l32 67 3 1365 c3 1527 7 1432 -68 1548
-67 104 -182 169 -316 179 l-71 6 18 37 c57 117 50 278 -18 402 -37 68 -121
143 -200 181 -61 28 -79 32 -173 34 -82 3 -116 -1 -156 -15z m230 -206 c91
-38 153 -139 143 -234 -3 -29 -14 -68 -25 -86 -10 -17 -171 -217 -356 -443
l-338 -412 -141 106 c-78 59 -141 110 -139 115 1 5 137 211 302 458 286 428
303 451 353 480 41 24 64 30 110 30 32 0 72 -6 91 -14z m-920 -658 c-4 -7
-106 -160 -226 -340 -241 -363 -208 -329 -339 -343 -84 -9 -215 -59 -292 -111
-116 -80 -201 -206 -244 -364 -22 -79 -25 -389 -5 -485 53 -251 68 -280 146
-280 35 0 53 8 97 42 109 84 121 87 409 93 233 6 260 8 312 29 125 49 229 157
278 289 29 75 37 214 18 303 l-14 65 456 557 455 556 126 1 c120 0 130 -2 180
-28 43 -22 59 -38 81 -81 l28 -53 0 -974 0 -974 -1591 0 -1591 0 -29 -29 c-23
-23 -29 -38 -29 -71 0 -52 13 -76 50 -95 25 -13 219 -15 1610 -15 l1581 0 -3
-264 -3 -264 -30 -43 c-16 -23 -50 -53 -74 -66 l-44 -23 -1957 0 -1957 0 -44
23 c-24 13 -57 43 -74 66 l-30 43 -3 264 -3 264 151 0 c199 0 230 15 230 110
0 33 -6 48 -29 71 l-29 29 -161 0 -161 0 0 969 c0 714 3 977 12 1002 18 54 48
87 102 114 l50 25 1299 0 c1036 0 1297 -3 1291 -12z m189 -668 c17 -16 13 -22
-85 -142 l-104 -125 -114 83 c-62 46 -118 88 -123 93 -5 5 29 63 84 144 l92
135 116 -86 c64 -47 124 -93 134 -102z m-436 -351 c178 -132 181 -135 192
-182 27 -116 1 -222 -70 -294 -73 -75 -83 -77 -364 -84 -236 -6 -254 -7 -324
-32 -41 -15 -76 -25 -77 -24 -9 9 -24 164 -24 239 1 249 93 409 277 478 60 22
153 40 189 36 12 -2 102 -63 201 -137z m-212 -2379 c28 -118 54 -227 58 -242
l7 -28 -250 0 c-235 0 -251 1 -246 18 3 9 28 114 56 232 28 118 53 221 55 228
4 10 36 12 137 10 l132 -3 51 -215z m596 -509 c24 -25 29 -37 29 -80 l0 -51
-810 0 -810 0 0 51 c0 43 5 55 29 80 l29 29 752 0 752 0 29 -29z"/>
<path d="M1059 2111 c-23 -23 -29 -38 -29 -71 0 -23 5 -50 10 -61 13 -23 61
-49 92 -49 39 0 86 36 96 72 28 107 -92 185 -169 109z"/>
</g>
</svg>
